PathFileType  4	(X/Y/Z) C:\Users\antoi\Documents\MyRepositories\mobilecap\ResultsAnalysis
DataRate	CameraRate	NumFrames	NumMarkers	Units	OrigDataRate	OrigDataStartFrame	OrigNumFrames
100.0	100.0	5	51	mm	100.0	174	278
Frame#	Time	r_knee			r_shank_antsup			r_ankle			r_calc			r_5meta			r_toe			L_knee			L_shank_antsup			L_ankle			L_calc			L_5meta			L_toe			r_sh2			r_sh3			r_sh4			L_sh2			L_sh3			r_thigh1			r_thigh2			r_thigh3			r_thigh4			r_thigh5			L_thigh1			L_thigh2			L_thigh3			L_thigh4			r.ASIS			r.PSIS			L.ASIS			L.PSIS			C7			R_Shoulder			L_Shoulder			R_Sternum			L_Sternum			R_humerus			R_elbow_med			R_elbow_lat			R_forearm			R_wrist_radius			R_wrist_ulna			L_humerus			L_elbow_med			L_elbow_lat			L_forearm			L_wrist_radius			L_wrist_ulna			R_HJC			L_HJC			R_HJC_reg			L_HJC_reg			
		X1	Y1	Z1	X2	Y2	Z2	X3	Y3	Z3	X4	Y4	Z4	X5	Y5	Z5	X6	Y6	Z6	X7	Y7	Z7	X8	Y8	Z8	X9	Y9	Z9	X10	Y10	Z10	X11	Y11	Z11	X12	Y12	Z12	X13	Y13	Z13	X14	Y14	Z14	X15	Y15	Z15	X16	Y16	Z16	X17	Y17	Z17	X18	Y18	Z18	X19	Y19	Z19	X20	Y20	Z20	X21	Y21	Z21	X22	Y22	Z22	X23	Y23	Z23	X24	Y24	Z24	X25	Y25	Z25	X26	Y26	Z26	X27	Y27	Z27	X28	Y28	Z28	X29	Y29	Z29	X30	Y30	Z30	X31	Y31	Z31	X32	Y32	Z32	X33	Y33	Z33	X34	Y34	Z34	X35	Y35	Z35	X36	Y36	Z36	X37	Y37	Z37	X38	Y38	Z38	X39	Y39	Z39	X40	Y40	Z40	X41	Y41	Z41	X42	Y42	Z42	X43	Y43	Z43	X44	Y44	Z44	X45	Y45	Z45	X46	Y46	Z46	X47	Y47	Z47	X48	Y48	Z48	X49	Y49	Z49	X50	Y50	Z50	X51	Y51	Z51	

174	1.73000000	-75.84065	410.78013	-378.33320	-62.36480	294.26601	-382.47908	-252.98104	93.27905	-379.51273	-314.43060	55.42594	-421.64874	-162.47946	42.55424	-324.35796	-118.86795	56.95850	-363.77590	-78.24978	417.25168	-775.14233	-52.53621	301.11177	-750.30144	-255.64935	94.90935	-787.37420	-312.33434	54.38734	-742.85013	-159.00729	37.37717	-831.79061	-110.88795	52.45069	-783.79375	-125.74834	200.43780	-388.06067	-114.66007	325.61715	-337.36335	-187.20491	241.78177	-349.65871	-95.26815	356.31634	-808.33820	-163.18365	253.84011	-829.71654	-276.49498	628.09087	-388.07743	-185.07449	579.81513	-385.73989	-186.01982	525.57407	-346.78432	-329.00315	535.21046	-353.46482	-225.44135	483.13064	-347.95266	-285.95245	614.72270	-757.57493	-159.05561	560.41208	-760.00314	-342.73255	520.37960	-782.17077	-211.73049	465.64928	-790.40267	-274.71059	641.59251	-447.70208	-435.04486	742.95383	-509.21836	-277.68277	638.62391	-686.76979	-436.96548	745.46856	-624.71237	-164.89267	1100.93942	-557.35458	-114.02453	1038.67304	-409.22673	-107.55767	1041.83596	-710.20539	-69.65240	997.34018	-536.39561	-73.55559	995.00352	-577.90837	-114.33239	925.67752	-337.96109	-188.05639	720.52602	-342.99919	-165.68315	747.21622	-274.33193	-106.44673	638.59354	-233.02359	-69.18838	540.73291	-215.43246	-101.62923	534.06568	-197.52437	-96.62737	911.39608	-778.73966	-145.10190	708.22313	-765.36437	-125.69517	737.84055	-832.32609	-77.37212	659.07785	-871.35664	-40.98093	530.15926	-892.70895	-69.59220	526.07723	-909.76382	-384.27757	604.43978	-468.04216	-384.16007	598.80117	-657.33120	-365.84143	597.82826	-480.42565	-368.46419	601.26354	-638.18304	
175	1.74000000	-76.11512	411.36307	-378.21318	-62.40491	294.32369	-381.82514	-253.19530	93.09703	-379.37012	-314.55588	55.35003	-421.57854	-162.54409	42.48270	-324.24971	-118.99569	56.97878	-363.71598	-78.98806	418.02310	-775.74559	-53.22971	301.27387	-750.75345	-255.95529	95.01007	-787.25819	-312.55796	54.51254	-743.16757	-159.04395	37.38062	-831.80579	-110.98539	52.52046	-783.82108	-126.04798	200.48495	-387.96454	-114.55486	324.60817	-337.80240	-187.03553	240.69610	-349.39463	-97.11558	355.65993	-810.10572	-163.67858	254.12671	-831.03558	-274.95987	631.58260	-387.40252	-182.72453	582.79360	-385.35027	-184.59942	526.55160	-346.12688	-328.22661	539.32806	-352.15636	-224.44103	485.86893	-347.42184	-285.22095	618.07487	-756.37536	-158.53397	562.93609	-759.15924	-342.60983	524.21622	-781.15797	-211.66128	468.68589	-788.90083	-272.10822	645.60388	-448.35475	-434.16029	747.88827	-508.63451	-276.74015	643.29109	-685.31336	-436.31316	749.89008	-623.50223	-168.09835	1108.40075	-556.80107	-115.80278	1048.05388	-409.74953	-109.57533	1052.19759	-708.75450	-71.73300	1006.96810	-535.67728	-75.79136	1005.16549	-577.01625	-106.48939	939.57924	-335.98694	-159.14600	727.28042	-335.19488	-138.13969	758.70421	-267.62284	-64.54629	658.94339	-225.69526	-15.60921	566.76292	-207.28260	-46.16576	556.44240	-188.27567	-88.31582	925.92186	-778.77885	-114.95718	718.58064	-765.54405	-99.33971	750.12481	-831.87373	-40.50067	677.64563	-871.31420	10.92419	553.94627	-891.98792	-17.02462	546.50017	-909.09911	-382.41284	608.86663	-467.29440	-383.18782	603.30880	-656.59163	-363.81283	603.31484	-480.33479	-366.74355	606.03941	-636.70879	
176	1.75000000	-76.16067	411.64618	-378.74733	-62.84353	294.45141	-381.59504	-253.45739	92.91574	-379.27955	-314.64495	55.23233	-421.46377	-162.64917	42.40825	-324.14871	-119.18565	57.03697	-363.58944	-81.38349	419.63410	-778.41799	-54.38028	301.99180	-752.02505	-256.39015	95.06965	-787.46814	-312.69472	54.44492	-743.31262	-159.08895	37.38731	-831.84478	-111.09040	52.57274	-783.84479	-126.51861	200.69838	-387.91338	-114.70938	324.13507	-337.63904	-187.64291	240.74146	-349.19200	-99.55918	355.02021	-810.90132	-164.49254	254.44220	-831.52631	-273.14634	635.69545	-387.25950	-181.03459	585.45400	-385.30611	-183.12392	528.83290	-345.73493	-326.99812	544.19634	-350.71157	-223.73324	490.07332	-346.16674	-284.27673	622.22193	-755.04626	-157.87516	566.23581	-758.23641	-342.28265	528.84874	-780.38121	-211.64548	472.25172	-787.82307	-271.23275	652.79543	-445.57995	-433.18962	753.60075	-507.90022	-275.69144	648.46784	-683.20611	-435.52823	755.15147	-622.30165	-171.78245	1116.44685	-556.09520	-117.79810	1058.61245	-409.47138	-111.83015	1063.32739	-706.99732	-74.14649	1016.93774	-535.10053	-77.96924	1015.38130	-576.32845	-98.87069	955.63399	-334.25562	-129.74637	739.30850	-327.27533	-110.11082	774.55912	-261.22302	-23.28766	685.49646	-219.64237	37.37247	600.87541	-201.18022	9.15880	586.95445	-181.03466	-79.77237	942.12522	-777.90367	-83.93293	734.00706	-764.63623	-73.21160	766.51705	-832.22391	-4.30392	701.16039	-870.71520	61.82908	585.43705	-890.58063	35.38956	573.79228	-907.51088	-381.38045	615.45469	-464.90186	-381.81213	608.29926	-654.13922	-362.53803	609.14859	-477.36266	-365.74294	611.27425	-634.20675	
177	1.76000000	-76.35312	411.74674	-379.76623	-63.51324	294.62614	-381.72648	-253.93455	93.30492	-378.67293	-314.65893	55.00652	-421.30221	-162.77428	42.37213	-324.08888	-119.40232	57.15671	-363.44794	-83.76308	421.18286	-779.55079	-55.99380	303.24732	-753.14339	-256.81128	95.03051	-787.62454	-312.76877	54.31370	-743.32574	-159.13812	37.37097	-831.88062	-111.19770	52.63607	-783.86136	-127.17353	200.94461	-387.89335	-115.61819	324.82040	-336.94294	-188.55368	241.16068	-349.31435	-100.87605	355.45683	-810.35462	-165.44711	254.60846	-831.04189	-270.61102	640.11254	-387.33814	-179.53404	588.06422	-385.88132	-181.73381	532.58781	-345.57475	-325.31908	549.55249	-349.59988	-222.91483	494.78824	-344.63634	-282.92354	626.81982	-753.37254	-157.75108	569.97817	-757.89478	-341.76584	534.19759	-779.37426	-211.86218	476.22512	-787.48125	-270.99358	661.60188	-441.19040	-432.07731	759.64939	-506.76923	-274.61605	654.65926	-681.94317	-434.56238	760.99111	-620.99689	-175.26422	1125.22034	-554.90213	-119.77989	1070.90252	-408.79795	-114.08502	1075.17052	-704.78130	-76.31076	1027.55860	-534.12849	-80.09451	1026.15822	-575.30132	-91.51602	973.66326	-333.00147	-100.51159	756.51467	-319.40689	-82.52239	794.89647	-254.85191	16.43438	718.19477	-214.75288	88.60116	643.06553	-197.35126	63.18144	625.59427	-176.08544	-71.17232	959.91196	-776.26504	-53.14298	753.81145	-763.47030	-47.79248	786.57850	-832.59007	30.40926	729.50927	-869.34212	111.03122	623.96400	-887.76916	86.67090	608.32964	-904.80091	-380.35879	622.95351	-462.15873	-380.13869	614.03325	-651.32391	-361.61981	614.98803	-473.32222	-365.07716	616.85692	-632.25925	
178	1.77000000	-77.11091	412.10690	-380.75985	-64.33868	295.10055	-381.85471	-254.54122	94.05194	-377.77956	-314.69386	54.78573	-421.17230	-162.89739	42.39810	-324.03595	-119.59473	57.31428	-363.35015	-85.21288	422.03898	-777.72277	-57.44711	304.39229	-753.12782	-257.20790	94.87996	-787.55087	-312.88476	54.29629	-743.37217	-159.22206	37.33728	-831.87479	-111.31235	52.74792	-783.88024	-127.86497	201.17900	-387.93717	-116.98897	325.96431	-336.63984	-189.43724	241.47995	-349.57139	-101.86371	356.40584	-809.87295	-166.42783	254.53868	-829.66363	-267.45343	644.77812	-387.01426	-176.95742	590.96710	-386.79138	-180.14176	536.16272	-345.43800	-323.29448	555.00279	-349.11321	-221.83035	499.08679	-343.61013	-281.05547	631.71879	-751.45713	-157.70946	573.69471	-757.81483	-341.09250	540.16754	-778.16951	-212.09508	480.29742	-787.02306	-269.73841	669.62887	-438.28370	-430.71890	765.80630	-505.35166	-273.45745	661.82615	-681.74162	-433.39872	767.19289	-619.67653	-179.03845	1134.86347	-553.37798	-121.73240	1084.28583	-408.62888	-115.76414	1087.88636	-701.87257	-78.19217	1038.67902	-532.56165	-81.92882	1037.48700	-573.90464	-84.45013	993.66460	-332.17222	-71.71090	778.33947	-311.83415	-56.03356	819.73911	-248.62914	54.19142	756.99631	-211.37635	136.87385	693.09275	-196.22779	115.02149	672.34198	-173.89900	-62.95685	979.31838	-773.96849	-25.22138	776.63515	-763.72180	-23.40761	809.98887	-832.76206	63.29229	762.58838	-867.30108	157.63775	669.31837	-883.31519	136.07207	650.13984	-900.55140	-378.53895	629.93737	-460.45698	-378.37690	620.52581	-649.60174	-360.16781	621.01749	-470.75696	-363.93534	622.96745	-631.48348	
